<svg width="96" height="97" viewBox="0 0 96 97" fill="none" xmlns="http://www.w3.org/2000/svg">
<path d="M53.0792 32.0033C34.0163 37.2303 20.0096 47.0989 11.3434 61.0006C2.67721 74.9022 11.0081 83.9639 24.9201 82.7906C38.832 81.6173 62.1304 73.7395 76.0423 63.3474C89.9543 52.9554 89.2837 45.5803 86.9371 40.2166C84.5905 34.8529 73.8633 26.3043 53.0792 32.0033Z" fill="#FAB13D"/>
<path fill-rule="evenodd" clip-rule="evenodd" d="M9.6462 59.9425C18.6245 45.5403 33.0932 35.4096 52.5503 30.0745C73.9865 24.1967 85.9098 32.8785 88.7695 39.4149C90.062 42.3694 90.9721 46.0889 89.483 50.5319C88.0229 54.8885 84.3565 59.6332 77.2392 64.9497C70.0773 70.2996 60.5834 74.9479 51.1705 78.4035C41.7599 81.8583 32.2762 84.1773 25.0882 84.7835C17.7629 85.4013 11.3457 83.3701 8.03425 78.7066C4.64368 73.9318 5.08569 67.2581 9.6462 59.9425ZM11.3434 61.0005C20.0096 47.0989 34.0164 37.2303 53.0792 32.0033C73.8633 26.3043 84.5905 34.8529 86.9371 40.2166C89.2837 45.5802 89.9543 52.9554 76.0423 63.3474C62.1304 73.7395 38.8321 81.6173 24.9201 82.7906C11.0081 83.9639 2.67721 74.9022 11.3434 61.0005Z" fill="#B7690D"/>
<path d="M26.2997 47.9839C18.4687 52.7762 13.4927 58.987 11.42 66.3081C9.3473 73.6292 14.2339 76.5973 20.2898 74.2784C26.3456 71.9595 27.7435 64.8606 32.6097 58.4284C37.4759 51.9963 42.7398 49.5574 42.7398 46.0304C42.7398 43.3089 34.8378 42.7588 26.2997 47.9839Z" fill="#FCC66F"/>
<path fill-rule="evenodd" clip-rule="evenodd" d="M23.343 55.0981C24.1615 55.8398 24.2237 57.1046 23.482 57.9231C20.4635 61.2538 19.1684 64.1193 18.1697 66.329C18.0479 66.5985 17.9305 66.8582 17.8149 67.1078C17.3509 68.1101 16.1621 68.5465 15.1598 68.0825C14.1574 67.6184 13.721 66.4296 14.1851 65.4273C14.2926 65.1949 14.405 64.9456 14.5245 64.6806C15.5377 62.4324 17.062 59.0505 20.518 55.237C21.2598 54.4185 22.5246 54.3563 23.343 55.0981Z" fill="#FFDFAD"/>
<path fill-rule="evenodd" clip-rule="evenodd" d="M17.7821 82.4118C33.1365 79.3271 53.27 71.6252 66.1734 61.9865C81.7102 50.3807 80.9613 42.1442 78.3407 36.1541C77.668 34.6165 76.3786 32.8446 74.4409 31.1675C81.5374 33.0655 85.5993 37.1586 86.9371 40.2166C89.2837 45.5802 89.9543 52.9553 76.0423 63.3474C62.1304 73.7395 38.832 81.6173 24.9201 82.7906C22.3212 83.0098 19.917 82.8718 17.7821 82.4118Z" fill="#EDA024"/>
<path d="M38.3292 64.0176C34.5747 56.6426 23.4675 52.7875 18.3832 51.7818C20.2605 48.6977 24.0821 46.1388 25.7582 45.2448C33.9378 50.3403 37.547 59.8831 38.3292 64.0176Z" fill="#D08814"/>
<path d="M55.2134 57.3701C50.8287 47.3912 40.7179 39.6276 35.6336 38.6219C38.8843 35.9004 45.2215 34.4508 46.8976 33.5569C56.2717 38.6219 54.4312 53.2356 55.2134 57.3701Z" fill="#A56112"/>
<path d="M71.6936 45.8793C67.6114 35.6736 62.6403 33.532 58.2625 30.7577C60.5808 29.777 66.5571 30.0052 68.4429 29.777C72.374 35.22 72.374 39.6047 71.6936 45.8793Z" fill="#9C5807"/>
<path fill-rule="evenodd" clip-rule="evenodd" d="M24.9796 45.3282C25.096 44.7883 25.6281 44.4451 26.168 44.5615C28.3847 45.0396 31.1984 46.843 33.7799 49.8539C36.3844 52.8916 38.8168 57.2287 40.2326 62.9115C40.3661 63.4474 40.0399 63.9901 39.504 64.1236C38.9681 64.2571 38.4255 63.9309 38.292 63.395C36.9485 58.0028 34.6561 53.9485 32.2616 51.1557C29.8443 48.3363 27.3851 46.87 25.7463 46.5165C25.2064 46.4001 24.8632 45.8681 24.9796 45.3282Z" fill="#FFDFAC"/>
<path fill-rule="evenodd" clip-rule="evenodd" d="M47.4355 33.3667C47.7493 32.9122 48.3721 32.7981 48.8266 33.1119C50.6442 34.367 52.7234 37.2188 54.3436 41.1824C55.9801 45.186 57.1961 50.4363 57.1961 56.6141C57.1961 57.1664 56.7484 57.6141 56.1961 57.6141C55.6439 57.6141 55.1961 57.1664 55.1961 56.6141C55.1961 50.6964 54.0308 45.7031 52.4923 41.9391C50.9373 38.1351 49.0477 35.6951 47.6902 34.7577C47.2357 34.4439 47.1217 33.8211 47.4355 33.3667Z" fill="#FFDFAC"/>
<path fill-rule="evenodd" clip-rule="evenodd" d="M68.4262 29.6336C68.7767 29.2068 69.4069 29.1451 69.8337 29.4956C71.6532 30.9902 72.9408 33.5303 73.6296 36.3839C74.3241 39.2611 74.4422 42.5828 73.8084 45.7718C73.7007 46.3135 73.1743 46.6653 72.6327 46.5577C72.091 46.45 71.7391 45.9236 71.8468 45.3819C72.4225 42.4853 72.3139 39.4568 71.6854 36.8532C71.0513 34.226 69.9197 32.1546 68.5642 31.0411C68.1374 30.6905 68.0756 30.0604 68.4262 29.6336Z" fill="#FFDFAC"/>
<path d="M71.4415 58.9282C71.1846 59.9765 70.3491 60.6726 69.5754 60.483C68.8016 60.2934 68.3826 59.2899 68.6395 58.2415C68.8964 57.1932 69.7319 56.4971 70.5056 56.6867C71.2794 56.8763 71.6984 57.8799 71.4415 58.9282Z" fill="#D48A15"/>
<path d="M64.52 61.5614C64.3113 62.413 63.6326 62.9785 63.004 62.8244C62.3755 62.6704 62.0351 61.8552 62.2438 61.0036C62.4525 60.152 63.1312 59.5866 63.7597 59.7406C64.3883 59.8946 64.7287 60.7098 64.52 61.5614Z" fill="#D48A15"/>
<path d="M69.4716 64.1317C69.2629 64.9833 68.5842 65.5488 67.9557 65.3948C67.3271 65.2407 66.9868 64.4255 67.1954 63.5739C67.4041 62.7224 68.0828 62.1569 68.7114 62.3109C69.3399 62.4649 69.6803 63.2801 69.4716 64.1317Z" fill="#D48A15"/>
<path d="M67.7057 54.6095C67.497 55.4611 66.8183 56.0266 66.1897 55.8726C65.5612 55.7185 65.2208 54.9033 65.4295 54.0518C65.6382 53.2002 66.3169 52.6347 66.9454 52.7887C67.574 52.9427 67.9144 53.7579 67.7057 54.6095Z" fill="#D48A15"/>
<path d="M76.3152 56.7849C76.1066 57.6365 75.4279 58.202 74.7993 58.048C74.1708 57.894 73.8304 57.0788 74.0391 56.2272C74.2477 55.3756 74.9265 54.8101 75.555 54.9641C76.1836 55.1182 76.5239 55.9334 76.3152 56.7849Z" fill="#D48A15"/>
<path d="M73.8762 53.2999C73.6408 54.2602 72.8755 54.8979 72.1666 54.7242C71.4578 54.5505 71.074 53.6312 71.3093 52.6709C71.5447 51.7106 72.31 51.0729 73.0188 51.2466C73.7276 51.4203 74.1115 52.3396 73.8762 53.2999Z" fill="#D48A15"/>
<path d="M81.5871 53.8549C81.3518 54.8152 80.5864 55.4529 79.8776 55.2792C79.1688 55.1055 78.7849 54.1862 79.0203 53.2258C79.2556 52.2655 80.021 51.6278 80.7298 51.8015C81.4386 51.9752 81.8224 52.8945 81.5871 53.8549Z" fill="#D48A15"/>
<path d="M79.686 49.7482C79.4507 50.7085 78.6853 51.3462 77.9765 51.1725C77.2677 50.9988 76.8839 50.0795 77.1192 49.1192C77.3545 48.1589 78.1199 47.5212 78.8287 47.6949C79.5375 47.8686 79.9213 48.7879 79.686 49.7482Z" fill="#D48A15"/>
<path d="M86.3386 49.0963C86.1033 50.0566 85.3379 50.6943 84.6291 50.5206C83.9203 50.3469 83.5365 49.4276 83.7718 48.4673C84.0071 47.507 84.7725 46.8693 85.4813 47.043C86.1901 47.2166 86.5739 48.136 86.3386 49.0963Z" fill="#D48A15"/>
<path d="M79.4341 58.0557C79.2801 58.6841 78.7792 59.1014 78.3153 58.9878C77.8515 58.8741 77.6003 58.2725 77.7543 57.644C77.9083 57.0155 78.4092 56.5982 78.873 56.7119C79.3369 56.8256 79.5881 57.4272 79.4341 58.0557Z" fill="#D48A15"/>
<path d="M74.2179 61.9867C74.0638 62.6152 73.563 63.0325 73.0991 62.9189C72.6352 62.8052 72.384 62.2036 72.538 61.5751C72.692 60.9466 73.1929 60.5293 73.6568 60.643C74.1207 60.7567 74.3719 61.3583 74.2179 61.9867Z" fill="#D48A15"/>
<path d="M59.8921 69.6599C59.7381 70.2884 59.2372 70.7057 58.7734 70.592C58.3095 70.4784 58.0583 69.8767 58.2123 69.2483C58.3663 68.6198 58.8672 68.2025 59.3311 68.3161C59.7949 68.4298 60.0461 69.0314 59.8921 69.6599Z" fill="#D48A15"/>
<path d="M65.3305 65.8795C65.1765 66.508 64.6756 66.9253 64.2117 66.8116C63.7479 66.698 63.4967 66.0963 63.6507 65.4679C63.8047 64.8394 64.3056 64.4221 64.7695 64.5357C65.2333 64.6494 65.4845 65.251 65.3305 65.8795Z" fill="#D48A15"/>
<path d="M61.3102 65.113C61.185 65.624 60.7777 65.9634 60.4005 65.8709C60.0232 65.7785 59.819 65.2893 59.9442 64.7782C60.0694 64.2671 60.4768 63.9278 60.854 64.0202C61.2312 64.1127 61.4355 64.6019 61.3102 65.113Z" fill="#D48A15"/>
<path d="M63.093 57.2894C62.939 57.9179 62.4381 58.3352 61.9742 58.2215C61.5104 58.1079 61.2592 57.5062 61.4132 56.8778C61.5672 56.2493 62.0681 55.832 62.5319 55.9457C62.9958 56.0593 63.247 56.661 63.093 57.2894Z" fill="#D48A15"/>
<path d="M70.8804 50.7607C70.7264 51.3892 70.2255 51.8065 69.7617 51.6929C69.2978 51.5792 69.0466 50.9776 69.2006 50.3491C69.3546 49.7206 69.8555 49.3033 70.3194 49.417C70.7832 49.5306 71.0344 50.1323 70.8804 50.7607Z" fill="#D48A15"/>
<path d="M76.0171 46.6014C75.8631 47.2298 75.3622 47.6472 74.8983 47.5335C74.4344 47.4198 74.1832 46.8182 74.3372 46.1897C74.4913 45.5613 74.9921 45.1439 75.456 45.2576C75.9199 45.3713 76.1711 45.9729 76.0171 46.6014Z" fill="#D48A15"/>
<path d="M81.7343 45.5905C81.5803 46.2189 81.0795 46.6363 80.6156 46.5226C80.1517 46.4089 79.9005 45.8073 80.0545 45.1788C80.2085 44.5504 80.7094 44.133 81.1733 44.2467C81.6372 44.3604 81.8884 44.962 81.7343 45.5905Z" fill="#D48A15"/>
<path d="M85.334 45.1788C85.18 45.8073 84.6792 46.2246 84.2153 46.1109C83.7514 45.9973 83.5002 45.3957 83.6542 44.7672C83.8082 44.1387 84.3091 43.7214 84.773 43.8351C85.2369 43.9487 85.4881 44.5504 85.334 45.1788Z" fill="#D48A15"/>
</svg>
